# xmcd CD database file
#
# Track frame offsets:
#	150
#	2675
#	23600
#	44932
#	63650
#	80450
#	97487
#	113462
#	130850
#	152075
#	178325
#	203900
#	225500
#	244400
#	266975
#	289187
#	306050
#
# Disc length: 4124 seconds
#
# Revision: 0
# Processed by: cddbd v1.5.1PL0 Copyright (c) Steve Scherf et al.
# Submitted via: CDex 1.50
#
DISCID=f7101a11
DTITLE=James Blundell - Touch of Water
DYEAR=94
DGENRE=Country
TTITLE0=Intro
TTITLE1=Touch Of Water
TTITLE2=Brilliant Man
TTITLE3=Walking Away
TTITLE4=Mysterious Ways
TTITLE5=So Close to Home
TTITLE6=The Load
TTITLE7=In Your Eyes
TTITLE8=Fast Train
TTITLE9=Doctor's Daughter
TTITLE10=Cant Love Alone
TTITLE11=Better Get Used To It
TTITLE12=Dream Ride
TTITLE13=Song For A Hero
TTITLE14=Two To One
TTITLE15=Weary Of This World
TTITLE16=Post Word
EXTD=YEAR: 94
EXTT0=
EXTT1=
EXTT2=
EXTT3=
EXTT4=
EXTT5=
EXTT6=
EXTT7=
EXTT8=
EXTT9=
EXTT10=
EXTT11=
EXTT12=
EXTT13=
EXTT14=
EXTT15=
EXTT16=
PLAYORDER=
